<svg xmlns="http://www.w3.org/2000/svg" viewBox="0 0 940.19 647.81">
    <title>map</title>
    <g id="Chubu">
        <g id="Echigo">
            <path
                d="M892,362.3a35.63,35.63,0,0,1-3.55,2.73,14,14,0,0,0-7.16,10.66c-.27,2.07-1.17,2.36-3,1.86-3.39-.93-6.7-2.57-10.34-.15-1.37.91-3.33-.47-5-.81-2.69-.53-4.4,0-5.21,3.11s-.38,6.88-4.61,7.95c.25,3-3.39,5.2-.3,9.09,2.15,2.71,1,7.68.22,11.6-.46,2.43-1.25,4.81-1.88,7.21-1.9,0-2.86-1.08-3.42-2.83-.64-2-1.53-3.94-2.29-5.91-.39-1-.79-1.82-2.15-1.33-4.66,1.68-10.25,2.25-10.37,9.1,0,.47-.35.94-.41,1.42-.28,2-.94,3.35-3.34,2.19a2.32,2.32,0,0,0-3.19,1.09c-2,3.41-4.79,3.22-7.94,2a19.65,19.65,0,0,0-3.28-.66c-.69-.47-2-.74-1.64-1.75,1.29-3.87,1.51-7.65-.19-11.45a1.56,1.56,0,0,1,.22-1.08c1.58-3.07.31-5.46-2.25-6.92s-5.45-2.46-8.22.15c-1.43,1.35-3.36,2.18-4.77,3.56-4.67,4.56-9.74,5.44-15.81,2.85-2.42-1-4.52-1.61-5.13-4.56-.35-1.63-8.79-4.88-10.08-4A2.3,2.3,0,0,0,766,399c-.36,3.9-3,5.72-6.22,7.11,1.31-4.73,1.8-9.44.17-14.24-.58-1.7.23-2.79,2.2-3,7.67-.86,15.33-1.63,22-6.14,2.72-1.83,5.47.66,8.23,1,1.48.19,2.55.66,3.09-1.26.34-1.2,1.6-1.47,2.65-1.84a48.76,48.76,0,0,1,5.3-1.82c15-3.4,24.28-13.89,32.17-25.94,5.41-8.26,13.52-11.15,22.54-12.68,3.68-.62,7.38-1.11,11.06-1.67a5.63,5.63,0,0,0,3.32-1.56c5.39-5.54,10.68-11.14,13.16-18.73,1.9-5.82,5.82-10.36,9.71-14.91,2,1.92,3.79,4,5.91,5.72,3,2.44,4.56,5.05,2.59,8.91-.43.84-1.2,2.5.43,2.82,3.16.61,3.36,3.38,4.43,5.47.63,1.21,2.24,2.85,1,3.91a7.09,7.09,0,0,1-5.15,1.81,10.54,10.54,0,0,1-1.43-.41c-3.88-.9-6.73.84-7.91,4.69-1,3.32-.76,7.45-3.26,9.79-5.06,4.74-4.41,9.25-1,14.27A13.91,13.91,0,0,1,892,362.3Z"
                transform="translate(-117.68 -96.71)" fill="#0405c6" />
        </g>
        <g id="North_Shinano" data-name="North Shinano">
            <path
                d="M759.74,406.08c3.19-1.39,5.86-3.21,6.22-7.11a2.3,2.3,0,0,1,.85-1.57c1.29-.84,9.73,2.41,10.08,4,.61,2.95,2.71,3.53,5.13,4.56,6.07,2.59,11.14,1.71,15.81-2.85,1.41-1.38,3.34-2.21,4.77-3.56,2.77-2.61,5.64-1.63,8.22-.15s3.83,3.85,2.25,6.92a1.56,1.56,0,0,0-.22,1.08c1.7,3.8,1.48,7.58.19,11.45-.33,1,1,1.28,1.64,1.75-1.33,3.16-3.64,4.06-7.9,3.18-1.06-.22-2.55-1.42-3,.59s-2.16,2.58-3.74,3.27a17.68,17.68,0,0,0-6,3.71c-1.85,1.92-2.75,4.27-2,6.78s1.72,5.26,5.24,5.42a15.11,15.11,0,0,1,3.62.9c3.1.95,5.48,8.13,2.87,9.5-4.16,2.19-4.21,5.89-5,9.32-1.23,5.44-1.21,10.82,3.34,15.08-.86,1.93-.86,4.17-2.16,5.95-1.1.53-2.2,1.1-3.32,1.61-1.36.6-3.53.55-3.66-.51-.46-3.87-3.55-3.5-5.92-4.28a4.26,4.26,0,0,1-2.53-2c-3.07-5-3.09-5-8.38-2.58-3.45-2.29-6.15-5.39-9.07-8.26a15.36,15.36,0,0,0-11.46-4.88c-8.07,0-16.15-.9-24.22-1.44a10.59,10.59,0,0,1,1.11-1.44c4.77-4.34,4.88-4.37,2.57-10.1a4.15,4.15,0,0,1,.72-4.74c2.75-3.39,5.29-6.93,5.94-11.43.78-3.64,4.65-5,6-8.16l0,.05a.74.74,0,0,0,.8-.8l0,.06a.76.76,0,0,0,.8-.8l0,0a.77.77,0,0,0,.81-.8l-.06,0a.78.78,0,0,0,.81-.8l-.06,0a.76.76,0,0,0,.81-.8l-.06.06c.51,0,.81-.27.81-.81l-.06.06c.53,0,.83-.24.81-.8L753,421c.56,0,.83-.23.81-.79l0,.07c1.84-.29,2.62-1.53,3-3.2C757.75,413.38,758.76,409.73,759.74,406.08Z"
                transform="translate(-117.68 -96.71)" fill="#c50404" />
        </g>
        <g id="Etchu">
            <path
                d="M722.22,382.11c.2,2-.41,3.35-2.48,4s-2.27,2.28-2,3.93c.82,6.22,9,11.28,15.13,9.75,4-1,7.45-2.11,7.53-7.09a1.67,1.67,0,0,1,1.52-1.83c4.77-.42,9.49-2.11,14.34-.53.9.29,1.69.67,1.83,1.63.6,4.1,2.33,8.05.69,12.38-2,5.2-2.33,10.91-5,15.92l0-.07L753,421l.06-.05-.81.8.06-.06-.81.81.06-.06-.81.8.06,0-.81.8.06,0a.82.82,0,0,0-.81.8l0,0a.79.79,0,0,0-.8.8l0-.06c-.48.05-.79.28-.8.8l0-.05c-2.72,1.43-4.29,4.18-6.76,5.89-2.24-.45-4.35-1.18-5.73-3.15-3-4.25-8-4.08-12.12-5.85-5.39-2.32-8.93.93-13,3.18-1.61.9-2.53,2.39-3.58,3.74s-2.22,1.81-3.86,1.12c-1.82-.77-1-2.12-.57-3.13.81-2-.35-2.35-1.88-3-2.33-1-4.38.89-6.57.2-1-4.05,1.42-10.05,4.62-12.45,1.71-1.28,2.64-3.18.91-5.19-.42-.49-1-.82-.76-1.48,1.69-4.51,1.13-10,6.07-13.08a10.19,10.19,0,0,0,5-8.27C713.56,382.69,717.27,379.34,722.22,382.11Z"
                transform="translate(-117.68 -96.71)" fill="#c5c507" />
        </g>
        <g id="Echizen">
            <path
                d="M629.29,460.64c.6-2.66,1.28-5.31,1.79-8,.37-1.92,1.6-1.91,3-1.65,1.82.33,2,1.34,1.58,3-.32,1.2-1.62,2.93.76,3.63,2.69.8,2.49-1.44,3.16-2.93,1.72-3.84,1.29-7.18-1.92-10-1.74-1.53-1.35-3.23-1.18-5.34.74-9.33,8.32-13.59,13.68-19.56,3.18-3.55,7-4.37,11.34-4,1.16,2.25,3.39,4,3,7-.67,4.61.88,6.73,5.46,8.15,1.38.43,3.32.16,4.07,1.57,2.58,4.84,7.45,5.71,12,7.26l-.76,3.43c-1.58,3.12-1.26,6,.42,9.11,2.83,5.22,2,6.89-3.64,8.55a6.05,6.05,0,0,1-3.6-.05c-4.17-1.16-8.56-1.76-12.52-3.41-6.52-2.72-11.9-1.77-16.58,3.44a20.6,20.6,0,0,1-2.46-.76c-2.92-1.32-4.6-.65-4.84,2.75a3.18,3.18,0,0,1-2.13,3.15c-3,1-5.75,2.8-8.95,3.3C631,466.27,635.19,462.49,629.29,460.64Z"
                transform="translate(-117.68 -96.71)" fill="#c5c507" />
        </g>
        <g id="Mikawa">
            <path
                d="M702.8,554.85q-11.94.71-23.87,1.42c-2.45.15-4.69-.74-6.89-1.49-2.37-.81-1.14-2.85-.14-3.48,2.52-1.62,5-4,8.52-2.51,3.93,1.62,7.8.63,11.72-.11a2.9,2.9,0,0,0,2.63-3c.17-1.82-.31-3.32-2.13-3.88-2.15-.65-4.3-.38-6.55-.24-3.76.23-8.25-.47-11-4.27-.87-1.2-1.93-2.26-2.9-3.38,1.57-6.72,6.79-9.86,12.42-12.54,1-.47,2.7-.28,2.9-1.36,1.05-5.52,6.25-7,9.65-10.15,1.11-1,2.14-2.58,4.11-2,4.76,5.14,9.83,8.88,16.9,3.79.07-.06.24,0,.36,0-.32,1.32-.6,2.64-1,3.94-.24.87-.56,2.08.55,2.12,2.43.09,5,3.51,7.35-.23.45-.73,1.09-.1,1.65-.1,2.67,0,3.58,2.16,4.84,3.9-1,2.11-1,4.51-2.91,6.33-5,4.71-9.7,9.67-14.52,14.55-.88.89-1.7,1.88-3.1,1.8-5.39-.28-7.29,2.95-7.85,7.64A29.17,29.17,0,0,1,702.8,554.85Z"
                transform="translate(-117.68 -96.71)" fill="#05c404" />
        </g>
        <g id="Totomi">
            <path
                d="M702.8,554.85a29.17,29.17,0,0,0,.79-3.26c.56-4.69,2.46-7.92,7.85-7.64,1.4.08,2.22-.91,3.1-1.8,4.82-4.88,9.55-9.84,14.52-14.55,1.92-1.82,2-4.22,2.91-6.33,1.45.42,2.65-.42,3.88-.87,5.43-2,10.82-4.12,16.22-6.2-.31,4-1.22,8.21,2.07,11.63.13.12.08.49,0,.72-1.73,6.47-2.42,13.54-5.61,19.19-1.94,3.44-1.94,6.33-2.36,9.66-.48,3.86.95,6,4.79,6.63a8.8,8.8,0,0,0-5.17,7.18c-.26,2.19-1.4,2.84-3.18,1.2-7.37-6.78-16.8-8.67-26-11-1.39-.35-2.91-.45-4.1-1.56-3.11-2.93-3.21-4.28-.35-8.45-1.63-1-2.89-.62-4.23.67C706.22,551.68,705,553.84,702.8,554.85Z"
                transform="translate(-117.68 -96.71)" fill="#c50404" />
        </g>
        <g id="Suruga">
            <path
                d="M751,562c-3.84-.6-5.27-2.77-4.79-6.63.42-3.33.42-6.22,2.36-9.66,3.19-5.65,3.88-12.72,5.61-19.19.06-.23.11-.6,0-.72-3.29-3.42-2.38-7.58-2.07-11.63,1.44-.92,2-2.5,2.79-3.88,2.82-4.8,5.6-9.63,8.4-14.45.67,2.53,1.69,5,1.93,7.59.3,3.3.6,6.67-3.16,8.92-1.7,1-1.82,3.75-2,5.81-.12,1.68,1.77,1.42,2.85,1.72a3.3,3.3,0,0,1,2.43,2.53c.79,2.49,1.87,4.91,2.48,7.45a4,4,0,0,0,4.61,3.35c2.23-.14,4.37-.8,4.9-3.68a66.58,66.58,0,0,1,2.23-8.31c.38-1.2-.1-3.17,1.69-3.36s2.92.88,3.88,2.43c2.34,3.76,10.77,4.81,14.36,1.92,1.87,1.82,3.63,3.77,5.64,5.41s2.6,3,.07,4.75c-3.32,2.33-4.05,5.42-1.9,9l-10.48,6.72c-3.33-8.28-15.52-9.51-20.67-4-3.22,3.47-7.14,4.26-10.4,6.67s-5.52,5.66-8.15,8.62A9.93,9.93,0,0,1,751,562Z"
                transform="translate(-117.68 -96.71)" fill="#0405c6" />
        </g>
        <g id="Kaga">
            <path
                d="M686,439.76c-4.5-1.55-9.37-2.42-12-7.26-.75-1.41-2.69-1.14-4.07-1.57-4.58-1.42-6.13-3.54-5.46-8.15.42-2.95-1.81-4.73-3-7,2.47-1.7,3.75-5.38,8-4.07,1.42.44,2.92-1.67,4.2-2.8,3.74-3.31,7.45-6.7,11.75-9.22,7.27-4.27,11.21-11.54,16.49-17.6.8-.91,1.26-2.2,2.68-2.45l4.86,5a10.19,10.19,0,0,1-5,8.27c-4.94,3.1-4.38,8.57-6.07,13.08-.24.66.34,1,.76,1.48,1.73,2,.8,3.91-.91,5.19-3.2,2.4-5.58,8.4-4.62,12.45a8.79,8.79,0,0,1,.17,4.67C693.06,434.62,688.78,436.56,686,439.76Z"
                transform="translate(-117.68 -96.71)" fill="#05c404" />
        </g>
        <g id="Owari">
            <path
                d="M701.28,507.84c-2-.57-3,1-4.11,2-3.4,3.18-8.6,4.63-9.65,10.15-.2,1.08-1.92.89-2.9,1.36C679,524,673.77,527.18,672.2,533.9c-.9,3-1.79,5.92-2.78,9.2-2.78-2.13-4.91-4.08-3.57-8,.77-2.24,1.27-4.34,0-7.19-1-2.23,0-6.35,2.89-8.58.77-.6,1.93-1,1.54-2.2-.3-1-1.33-.94-2.18-1.13-2.17-.47-4.3-1-5.68-3l0,.06c.11-.69.16-1.36-.76-1.55l0,.05c0-.59.07-1.17.1-1.75,2-3.95,1-9.58,6.54-11.5.21-3.33,2.83-3.1,5.11-3.6,4.45-1,8.57.19,12.77,1.45,2.08.63,2.57,1.49,1.64,3.38-1.44,2.91-.14,3.9,2.73,4.67C694.19,505.19,698.21,505.18,701.28,507.84Z"
                transform="translate(-117.68 -96.71)" fill="#c5c507" />
        </g>
        <g id="Izu">
            <path
                d="M803.29,541.41a31.51,31.51,0,0,1,3.78,6.5c-.9,3.73-2.77,7.13-.55,11.4.76,1.47,1.07,6.46-4,7.15-1.6.22-2.9,2.88-4.24,4.5-3.1,3.73-6.11,7.48-10.72,9.57-2.75,1.26-6.18.75-7.89-1.7a24.89,24.89,0,0,1-2.59-4.09c-.9-2-1.39-4.22,1.7-5,1.39-.33,1.11-1.49,1.35-2.34,1.38-4.9,3-9.78,4-14.76.66-3.33,2-4,5-2.86,1.66.66,3.83,1.79,3.71-1.7Z"
                transform="translate(-117.68 -96.71)" fill="#c5c507" />
        </g>
        <g id="Noto">
            <path
                d="M750.78,349.57c-.45-1.52-1-3.1-2.84-3.69-4.36-1.46-8.61-3.26-13.27-.67-3.78,2.1-7.64,2.82-12.1,1.09-4.19-1.63-8.16,1.29-12.21,2.29-.35.08-.66.71-.81,1.15a35.57,35.57,0,0,1-3.7,7.17c-2.74,4.39-1.71,10.18-1.27,15.27.22,2.53,1,4.94.13,7.48l4.86,5c4-2,7.7-5.32,12.65-2.55,1.73-1.71,1.64-4.1,2.23-6.22.32-1.15,1.46-2.57.48-3.5s-2.36.13-3.36.7c-2.88,1.66-4.45-.54-6.08-2s-.32-3.21.6-4.66c.74-1.15,1.67-2.17,2.39-3.33,1.33-2.13,2.59-2.51,4-.13,1.61,2.66,3.2,2.18,5.38.37,2-1.65,3.82-3.89,7.18-3.1s7.89-2,8.67-5.26c.6-2.55,1.87-2.43,3.78-2C750.18,353.48,751.54,352.11,750.78,349.57Z"
                transform="translate(-117.68 -96.71)" fill="#0405c6" />
            <path
                d="M718.68,368.51c-.15,1.78,1.2,2,2.41,2.15,1.55.22,3.08-.75,3-2,0-1.54-2-1.4-3.61-1.76C719.5,366.51,718.8,367.07,718.68,368.51Z"
                transform="translate(-117.68 -96.71)" fill="#0405c6" />
        </g>
        <g id="South_Shinano" data-name="South Shinano">
            <path
                d="M763.26,495.87c-2.8,4.82-5.58,9.65-8.4,14.45-.8,1.38-1.35,3-2.79,3.88-5.4,2.08-10.79,4.19-16.22,6.2-1.23.45-2.43,1.29-3.88.87-1.26-1.74-2.17-3.89-4.84-3.9-.56,0-1.2-.63-1.65.1-2.32,3.74-4.92.32-7.35.23-1.11,0-.79-1.25-.55-2.12.36-1.3.64-2.62,1-3.94a22.84,22.84,0,0,0,9.34-14.88c.27-1.56.17-2.1-1.39-2.65-3.33-1.16-4.8-3.74-3.52-7.14,1.71-4.55.49-7.86-3.1-10.67a25.76,25.76,0,0,0-1.42-2.15c-3.93-4.85-3.73-5.83,1.67-8.87a2.77,2.77,0,0,1,2.78-.32,4.34,4.34,0,0,0,5.66-1.23,5.21,5.21,0,0,1,2.83-1.71c8.07.54,16.15,1.48,24.22,1.44a15.36,15.36,0,0,1,11.46,4.88c2.92,2.87,5.62,6,9.07,8.26-.1,2.37-1,4-3.69,3.14-1.57-.49-2.15.36-3.1,1.23C764.9,485,765.06,490.81,763.26,495.87Z"
                transform="translate(-117.68 -96.71)" fill="#c5c507" />
        </g>
        <g id="Kai">
            <path
                d="M763.26,495.87c1.8-5.06,1.64-10.89,6.09-14.9.95-.87,1.53-1.72,3.1-1.23,2.64.82,3.59-.77,3.69-3.14,5.29-2.39,5.31-2.4,8.38,2.58a4.26,4.26,0,0,0,2.53,2c2.37.78,5.46.41,5.92,4.28.13,1.06,2.3,1.11,3.66.51,1.12-.51,2.22-1.08,3.32-1.61a10.84,10.84,0,0,0,1.78,1.35c5,2.35,7.79,6.36,8.83,11.67.74,3.74,4.19,5.07,6.5,7.41,1,1.05,2.21,2,3.32,3-.24.41-.68.82-.7,1.24-.21,6.7-4.4,9.11-10.32,10.17-3.37.6-6.59,2-9.88,3.1-3.59,2.89-12,1.84-14.36-1.92-1-1.55-2.21-2.61-3.88-2.43s-1.31,2.16-1.69,3.36a66.58,66.58,0,0,0-2.23,8.31c-.53,2.88-2.67,3.54-4.9,3.68a4,4,0,0,1-4.61-3.35c-.61-2.54-1.69-5-2.48-7.45a3.3,3.3,0,0,0-2.43-2.53c-1.08-.3-3,0-2.85-1.72.16-2.06.28-4.8,2-5.81,3.76-2.25,3.46-5.62,3.16-8.92C765,500.9,763.93,498.4,763.26,495.87Z"
                transform="translate(-117.68 -96.71)" fill="#05c404" />
        </g>
        <g id="Hida">
            <path
                d="M731.39,462a5.21,5.21,0,0,0-2.83,1.71A4.34,4.34,0,0,1,722.9,465a2.77,2.77,0,0,0-2.78.32c-5.4,3-5.6,4-1.67,8.87a25.76,25.76,0,0,1,1.42,2.15c-4-.21-7.85,1.19-11.76,1.84-3.4.57-6.45-.48-9.33-1.83-2.7-1.26-3-3.59-.69-4.54,4.07-1.67,5.14-4.95,6-8.7,1-4.61.34-6.28-4.18-7.25a8.52,8.52,0,0,1-6.63-5.21c-1.59-3.57-3.61-6.81-8-7.42l.76-3.43c2.78-3.2,7.06-5.14,7.92-10a8.79,8.79,0,0,0-.17-4.67c2.19.69,4.24-1.23,6.57-.2,1.53.67,2.69,1,1.88,3-.4,1-1.25,2.36.57,3.13,1.64.69,2.76.3,3.86-1.12s2-2.84,3.58-3.74c4-2.25,7.57-5.5,13-3.18,4.14,1.77,9.15,1.6,12.12,5.85,1.38,2,3.49,2.7,5.72,3.15,1,.52.58,1.48.72,2.27-.65,4.5-3.19,8-5.94,11.43a4.15,4.15,0,0,0-.72,4.74c2.31,5.73,2.2,5.76-2.57,10.1A10.59,10.59,0,0,0,731.39,462Z"
                transform="translate(-117.68 -96.71)" fill="#0405c6" />
        </g>
        <g id="Mino">
            <path
                d="M685.24,443.19c4.4.61,6.42,3.85,8,7.42a8.52,8.52,0,0,0,6.63,5.21c4.52,1,5.21,2.64,4.18,7.25-.83,3.75-1.9,7-6,8.7-2.3,1-2,3.28.69,4.54,2.88,1.35,5.93,2.4,9.33,1.83,3.91-.65,7.71-2.05,11.76-1.84,3.59,2.81,4.81,6.12,3.1,10.67-1.28,3.4.19,6,3.52,7.14,1.56.55,1.66,1.09,1.39,2.65a22.84,22.84,0,0,1-9.34,14.88c-.12,0-.29-.07-.36,0-7.07,5.09-12.14,1.35-16.9-3.79-3.07-2.66-7.09-2.65-10.7-3.63-2.87-.77-4.17-1.76-2.73-4.67.93-1.89.44-2.75-1.64-3.38-4.2-1.26-8.32-2.43-12.77-1.45-2.28.5-4.9.27-5.11,3.6-5.56,1.92-4.56,7.55-6.54,11.5l-1.27-.55a7.64,7.64,0,0,1-2-7.64c.71-3.22-3.56-5.65-6.75-4.26-.89.39-1.71.94-2.57,1.41-1.05-4.52-1.76-8.66,3-12.13,2.07-1.52,2.57-5.08,2.46-7.88-.09-2.07-.37-4.78-2.58-5.79-1.82-.83-1.72-1.68-1.23-3.1a4.86,4.86,0,0,0,0-3.28c-.51-1.92-1-3.84-1.52-5.76,4.68-5.21,10.06-6.16,16.58-3.44,4,1.65,8.35,2.25,12.52,3.41a6.05,6.05,0,0,0,3.6.05c5.59-1.66,6.47-3.33,3.64-8.55C684,449.2,683.66,446.31,685.24,443.19Z"
                transform="translate(-117.68 -96.71)" fill="#c50404" />
        </g>
    </g>
    <g id="Tohoku">
        <g id="Fukushima">
            <path
                d="M965.49,366.08c.33,5.71.47,11.43,1,17.11,1.14,12-2.83,23-6,34.25a6.16,6.16,0,0,1-1.45,2.56c-4.45,4.53-6.45,10.16-7.65,16.2-.29,1.46-.52,2.86-2.84,2.4-5.1-1-5.13-.89-6.61,4.49-1.48-1.66-3-3.32-4.44-5a9.31,9.31,0,0,0-9.42-2.32c-7.8,3.06-11.35,2-16.2-4.92a22.49,22.49,0,0,1,.14-3.68c0-3.59.31-7.27-3.45-9.8-3.49-2.35-6.88-4.84-10.54-6.9-2.31-1.3-4.7-2.22-7.31-.41s-5.44,2.47-8.7,3c-8.52,1.44-16.83,4.15-25.23,6.36l-5.79-3.9c.63-2.4,1.42-4.78,1.88-7.21.74-3.92,1.93-8.89-.22-11.6-3.09-3.89.55-6.14.3-9.09,4.23-1.07,3.84-5,4.61-7.95s2.52-3.64,5.21-3.11c1.69.34,3.65,1.72,5,.81,3.64-2.42,7-.78,10.34.15,1.87.5,2.77.21,3-1.86A14,14,0,0,1,888.41,365,35.63,35.63,0,0,0,892,362.3c7,.65,12.24,5.11,17.92,8.57s8.46,3.18,13.18-1.31c4.06-3.86,8.29-7.55,8.71-13.72,0-.54.57-1,.87-1.58Z"
                transform="translate(-117.68 -96.71)" fill="#c50404" />
        </g>
        <g id="Ugo">
            <path
                d="M951,171c2.51.68,5,1.36,7.54,2.06.94.26,1.79.69,2.87.21,5.79-2.58,10.39-1.19,14.43,3.77,1.7,2.1,5,1.83,7.63,2.59C988,181,990,183.5,990,188.2s-.2,9.46-1.83,14,.36,8.9.3,13.35c0,.33.23.89.47,1,4.32,1.31,1.88,4.16,1.48,6.5-.21,1.22-.72,2.4-.91,3.62-1.43,8.77-5.89,15.66-11.77,22.31-4.24,4.81-6.38,11.53-3.29,18.31a9.32,9.32,0,0,1,.37,6.45c-1.24,5.29-3.66,10.33-3.56,15.91a.49.49,0,0,1-.51.23,12.5,12.5,0,0,1-2.13-.52Q946,279.08,923.46,268.79c-1.16-1-1-2.09-.63-3.38a41.24,41.24,0,0,0,1.63-6.12c.49-3.28,2.1-5.46,5.29-6.43,2.34-.71,3.33-2.69,4.62-4.55,6.2-8.91,8.6-18.91,9-29.56.21-5.59-1.41-7.73-6.8-8.67-.75-.13-1.34-.32-2.05.28-2.67,2.22-4.33,1.84-6.18-1.15-1.66-2.69-.22-5.16.78-7.42s3-.43,4.24,0c2.93,1,5,.48,6.82-2a7.74,7.74,0,0,1,1.84-1.86c7-4.72,8.36-12.28,10.16-19.66.4-1.63-.32-2.84-1-4.22C950.84,173.2,949.18,172.15,951,171Z"
                transform="translate(-117.68 -96.71)" fill="#05c404" />
        </g>
        <g id="Uzen">
            <path
                d="M923.46,268.79q22.57,10.27,45.16,20.55a12.5,12.5,0,0,0,2.13.52c-1,2.72-3.71,3.51-5.86,4.72-3.27,1.84-4.86,4.11-4.43,8,.53,4.66-.06,9-3.89,12.6-1.56,1.46-2.57,4.62-1.69,6.21,2.29,4.13-.43,6.25-2.41,8.83-4.64,6.07-10.34,11.51-10.66,19.94-.09,2.61-2.1,3.19-4.34,2.61-2-.51-3.7-.58-4.83,1.48-.3.53-.84,1-.87,1.58-.42,6.17-4.65,9.86-8.71,13.72-4.72,4.49-7.52,4.76-13.18,1.31S899,363,892,362.3a13.91,13.91,0,0,0-.94-2c-3.44-5-4.09-9.53,1-14.27,2.5-2.34,2.25-6.47,3.26-9.79,1.18-3.85,4-5.59,7.91-4.69a10.54,10.54,0,0,0,1.43.41,7.09,7.09,0,0,0,5.15-1.81c1.24-1.06-.37-2.7-1-3.91-1.07-2.09-1.27-4.86-4.43-5.47-1.63-.32-.86-2-.43-2.82,2-3.86.43-6.47-2.59-8.91-2.12-1.72-3.95-3.8-5.91-5.72.48-4.16,2.89-6.79,6.44-8.85s6.73-4.6,10.14-6.84a10.3,10.3,0,0,0,3.32-4.36C917.81,278.31,919.81,273.08,923.46,268.79Z"
                transform="translate(-117.68 -96.71)" fill="#c5c507" />
        </g>
        <g id="Miyagi">
            <path
                d="M932.64,354.26c1.13-2.06,2.85-2,4.83-1.48,2.24.58,4.25,0,4.34-2.61.32-8.43,6-13.87,10.66-19.94,2-2.58,4.7-4.7,2.41-8.83-.88-1.59.13-4.75,1.69-6.21,3.83-3.57,4.42-7.94,3.89-12.6-.43-3.9,1.16-6.17,4.43-8,2.15-1.21,4.84-2,5.86-4.72a.49.49,0,0,0,.51-.23l37.92,12c.35,1.36,1.36,1.18,2.38,1l0,0c.47,1.12,1.37,1,2.28.77l0,0c.47,1.11,1.39.91,2.28.77l0,0c.48,1.11,1.4.9,2.3.75h0c.31,1.38,2.22.42,2.58,1.83-1.33,1.5-3.26,2.14-4.92,3.19-.94.6-2,1-2.25,2.28-.51,3-1.3,5.69-5,6.52-1.17.26-2.59,2.08.06,3.05a1.61,1.61,0,0,1,1.19,2.28c-.69,2.06-1,4.06.44,6a1.35,1.35,0,0,1-.61,1.91c-3.58,2.21-4.59,4.56-3.47,8.48.75,2.62,1.69,5.18,2.69,8.19a11,11,0,0,0-7.45,1.09c.74-3.3.88-5.85-.94-8.63a11.59,11.59,0,0,0-8.18-5.64c-1.92-.34-3.63-1-4.16,1.8-.31,1.66-1.71,1.31-2.69.82-3.22-1.63-4.46-.23-4.84,2.86a3.51,3.51,0,0,1-1.71,2.75c-8.48,5.08-12.18,13.05-13.52,22.44Z"
                transform="translate(-117.68 -96.71)" fill="#0405c6" />
        </g>
        <g id="Iwate">
            <path
                d="M951,171c0-.74-.33-1.59-.06-2.2,1.69-3.74.49-6.83-1.6-10.05-2-3.06-1-5.33,2.46-6.71,2.42-1,4.95-1.57,5.41-4.89.21-1.52,1.65-.86,2.77-.61,2.87.64,5.61,1.42,8.78.66,7.8-1.89,9.46-9,12.8-14.54,1.18-2-.77-4.53-1.54-6.73-.63-1.81-.69-3.08,1.37-3.81,1.58-.57,2.2-1.82,2.51-3.42.44-2.27,1.09-4.5,1.9-7.77,1.76,3.81,3,6.73,4.43,9.55,1.11,2.16,2.8,2.86,5.16,1.63,1.29-.68,2.22-3.48,3.79-1.86s3.28,4,2.83,7a92.42,92.42,0,0,0-1.13,21.21c.1,1.38-.07,2.83,1.69,3.31,2.38.64,4.06-.9,5.69-2.13,1.3-1,.49-1.89-.48-3-1.39-1.6.59-5.21,3.16-7,2.38-1.68,3.54-.5,4.62,1.44.89,1.6,2.39,3,1.81,5.09-.18.65,0,1.06.73,1.44,4.13,2.16,4.11,2.19,5.77,5,5.9-4.57,10.27-10,10.91-17.82.23-2.85,2.49-5.53.44-8.6-1.14-1.71-2-2.36-3.68-.61-6.5,6.9-14.12,4.15-21.6,2.4-1-.23-1.7-.83-1.41-1.84.94-3.26,1.62-6.34,4.11-9.28,3.82-4.51,6.57-10,10-14.87.8-1.13.91-2.75,1.68-5.27a28.7,28.7,0,0,0,9.62,11.68,4.43,4.43,0,0,1,1.11,1.9c.68,1.74.28,3.94,3,4.65,3.07.8,6,1.85,8.82-.45a4.55,4.55,0,0,1,3.4-1.32c1,.12,2.23.24,2,1.63-.44,2.19-.46,5.16-1.87,6.32-3.43,2.82-3.14,6.78-4.3,10.26a25.69,25.69,0,0,1-4,7.8c-2.77,3.66-3.28,8.55-3.53,13.11a115.4,115.4,0,0,1-1.27,12.56c-.85,5.16,1.47,10.25,2.26,15.39a1.56,1.56,0,0,0,.93,1.08c5.44,1.14,5.65,6.36,7.78,10,1.43,2.46,2.33,5.23,3.52,7.84,1.46,3.19,2.81,6.33,1.06,9.92-.65,1.33-.11,2.64,1,3.71,2,1.93,2.23,3.63-.54,5.22s-1.19,6.08,1.58,7.25,2.75,2.58,1.93,4.77c-.44,1.19-.9,2.63-.25,3.64,3.14,4.83-.26,9.12-.9,13.62-.16,1.14-.68,1.78-2,1.5-2.28-.46-1.78,1.64-2.19,2.7-.59,1.56.52,2,1.89,2.5,4.16,1.41,5.15,7.47,1.7,10.22-1.38,1.1-2.81,2-3.19,3.95-.19,1-.74,1.45-2,1.66-2.9.5-3.82,3.36-5,5.55-.77,1.5,2.22.67,2.25,2.41-3.12,1.1-4.49,3.06-2.66,6.48.75,1.39-.64,2-1.58,2.49a11.06,11.06,0,0,0-6,7.5c-1.08,3.91-5.14,3.38-7.87,2.88-4.24-.79-5.9,1-6.44,4.55-.4,2.67-1.82,3.49-4.28,3.13h0c-.5-1-1.41-.88-2.3-.75l0,0c-.49-1-1.4-.86-2.28-.77l0,0c-.49-1-1.4-.86-2.28-.77l0,0c-.48-1.07-1.56-.75-2.38-1l-37.92-12c-.1-5.58,2.32-10.62,3.56-15.91a9.32,9.32,0,0,0-.37-6.45c-3.09-6.78-1-13.5,3.29-18.31,5.88-6.65,10.34-13.54,11.77-22.31.19-1.22.7-2.4.91-3.62.4-2.34,2.84-5.19-1.48-6.5-.24-.08-.48-.64-.47-1,.06-4.45-1.89-8.88-.3-13.35S990,193,990,188.2s-2-7.24-6.51-8.54c-2.6-.76-5.93-.49-7.63-2.59-4-5-8.64-6.35-14.43-3.77-1.08.48-1.93,0-2.87-.21C956.05,172.39,953.53,171.71,951,171Z"
                transform="translate(-117.68 -96.71)" fill="#c50404" />
        </g>
    </g>
    <g id="Chugoku">
        <g id="Aki">
            <path
                d="M425.59,500.3a13.53,13.53,0,0,1-1.8-.45,15,15,0,0,0-15,1.51c-6,3.94-16-.47-15.6-9.52.14-3.55-3.24-5.53-6.65-4.66-6.25,1.58-10.21,5.61-13.17,11q-2.82-8.39-5.65-16.76c1.05-3.47,2.2-6.23,5.63-8.84a26.82,26.82,0,0,0,8.75-12.22c1.51-4.32,7.84-6.94,12.27-5.74,8,2.17,15.92,5.06,24.29,1.67a55.22,55.22,0,0,0,2.11,6c1.58,3.31,1.42,5.55-2.4,7.32-3.19,1.49-3.05,4.22-.42,6.79,2.11,2.06,5.56,3.21,6.26,6.15C425.57,488.3,428,494.16,425.59,500.3Z"
                transform="translate(-117.68 -96.71)" fill="#05c404" />
        </g>
        <g id="Bingo">
            <path
                d="M425.59,500.3c2.36-6.14,0-12-1.4-17.81-.7-2.94-4.15-4.09-6.26-6.15-2.63-2.57-2.77-5.3.42-6.79,3.82-1.77,4-4,2.4-7.32a55.22,55.22,0,0,1-2.11-6l1-3.76c3.78-2.38,7.57-4.73,11.33-7.14,3.07-2,10.77-1.26,13.37,1.29,3.32,3.25,5.1,3.5,9.38,1.32l2.72,4.52c2.67,3.18,2.73,6.62,1.2,10.33-1.66,4-1.33,8.21-1,12.47.56,7.76,2.59,15.51.39,23.32-3,1.27-5.92,2.55-8.9,3.8-3.27,1.38-5,.43-5.5-3-.29-1.91-1.42-1.57-2.3-.63-1.39,1.48-2.79,1.59-4.69,1.05s-4.3-2.17-6.14.93C428.81,501.83,426.93,500.41,425.59,500.3Z"
                transform="translate(-117.68 -96.71)" fill="#0405c6" />
        </g>
        <g id="Nagato">
            <path
                d="M328.19,492.81c-1,.79-.27,3-2.3,2.87s-2.84-.93-3.11-3.22c-.23-1.91-2.12-1.22-3.5-.37-4.7,2.88-9.8,1.62-12.36-3-3.39-6.08-6.06-6.56-12.07-2.15l-1.66.5c-.53-1.69.39-3.17.68-4.74.09-.49.28-1,.41-1.44,1.09-4-1.83-9.62,4.57-11.75a2.67,2.67,0,0,0-.46-4c-2.31-1.91.48-4.5.76-6.83.15-1.31,1.64-1.22,2.46-.83,3.48,1.64,4.65-.3,5.1-3.33,2.42.67,3.72,2.93,6.08,3.2,1.61.19,3,1.29,4.81-.33a2.62,2.62,0,0,1,4,1.55c.9,3.5,3.06,4.74,6.28,3,5.89-3.26,11.82-6.47,17.55-10,3.36-2.06,6.46-2.18,9.79-.34-.12.73-.24,1.46-.37,2.19-1,5.89-5,11.44-2,17.81a2.53,2.53,0,0,1-.32,1.79c-.87,1.78-.22,3.35.52,4.94-3.24,1.66-6.29,4.12-10.32,2-1.34-.71-2.14.25-2.21,1.53-.16,3-2.4,4-4.48,5.38C333.39,489,329.92,489.69,328.19,492.81Z"
                transform="translate(-117.68 -96.71)" fill="#0405c6" />
        </g>
        <g id="Iwami">
            <path
                d="M353.08,478.29c-.74-1.59-1.39-3.16-.52-4.94a2.53,2.53,0,0,0,.32-1.79c-2.94-6.37,1-11.92,2-17.81.13-.73.25-1.46.37-2.19,5.12,1.89,9-1.09,13.12-3.28,8.56-4.56,16.76-9.84,26.16-12.67.83-.26,1.68-.91,2.46-.81,5.22.65,8.17-2.69,11.16-6.07,2.77-3.14,6.48-3.93,10.45-4a15.74,15.74,0,0,1,3.65,12.18c-.55,5.3-1.65,10.43-2.67,15.61l-1,3.76c-8.37,3.39-16.3.5-24.29-1.67-4.43-1.2-10.76,1.42-12.27,5.74a26.82,26.82,0,0,1-8.75,12.22c-3.43,2.61-4.58,5.37-5.63,8.84C362.38,482.49,357.18,483,353.08,478.29Z"
                transform="translate(-117.68 -96.71)" fill="#c50404" />
        </g>
        <g id="Izumo">
            <path
                d="M419.6,452.52c1-5.18,2.12-10.31,2.67-15.61a15.74,15.74,0,0,0-3.65-12.18c1.16-1.24,2.79-1.58,4.27-2.19,6-2.49,6.3-3,4.36-9.2a8.45,8.45,0,0,1,2.61.29,8,8,0,0,0,8.63-1,4.62,4.62,0,0,1,4.87-.63c4.66,2.18,8.88,1.14,12.91-1.57,2.47-1.66,4.26-1.58,5.16,1.67a4,4,0,0,0,3.49,2.89c1.94.36,3.82,1,6.07,1.6-1.29,1.58-3.05,2.51-4.28,2-5.08-2-10.5.54-15.47-1.46-3.05-1.22-5.14-.13-7.1,2.53a8.25,8.25,0,0,0,6.19.11,7.5,7.5,0,0,1,7.7,1.36c2.36,2.21,5,3,8,3.52,1,1.69.7,3.62,1,5.43.71,4.57-.24,8.41-4.49,11.14-3.09,2-5.87,4.45-8.78,6.7-4.28,2.18-6.06,1.93-9.38-1.32-2.6-2.55-10.3-3.26-13.37-1.29C427.17,447.79,423.38,450.14,419.6,452.52Z"
                transform="translate(-117.68 -96.71)" fill="#c5c507" />
        </g>
        <g id="Bizen">
            <path
                d="M513.94,480.53c-1.1,4.84-2.4,9.65-1.63,14.69-3,1.7-6.11,3.31-9,5.14s-5.74,2.89-9,1.26c-1.61-.8-2.5.32-3.58,1.13-4,3-8,6-13.45,5-1.86-.33-4.69.31-3.77-3.31.19-.75-.47-1.11-1.13-1.16-3.21-.24-3.3-2.22-2.65-4.64a8.41,8.41,0,0,1,1.46-1.11c7.18-3.38,8.82-8.19,5.05-15.16-1.86-3.46-4.4-6.76-1.92-11,6.93,2,13.82,4.18,20.79,6.06C501.22,479.18,507.2,482.28,513.94,480.53Z"
                transform="translate(-117.68 -96.71)" fill="#0405c6" />
        </g>
        <g id="Suo">
            <path
                d="M353.08,478.29c4.1,4.69,9.3,4.2,14.62,3.12q2.83,8.37,5.65,16.76c-.91,3.49-1.8,7-2.73,10.47-.47,1.77-7.79,7.85-9.46,7.92-1.06,0-1.47-.85-2-1.49-1.51-1.82-3-3.68-4.42-5.56-1.81-2.34-3.2-4.78-7.08-2.64-2.5,1.38-4.05-.53-3.31-3.5,1.41-5.65.13-7.3-5.82-7.49a3.27,3.27,0,0,0-1.47.2c-4.13,2-7,.69-8.88-3.27,1.73-3.12,5.2-3.83,7.88-5.62,2.08-1.4,4.32-2.41,4.48-5.38.07-1.28.87-2.24,2.21-1.53C346.79,482.41,349.84,480,353.08,478.29Z"
                transform="translate(-117.68 -96.71)" fill="#c5c507" />
        </g>
        <g id="Hoki">
            <path
                d="M453.68,448c2.91-2.25,5.69-4.72,8.78-6.7,4.25-2.73,5.2-6.57,4.49-11.14-.27-1.81,0-3.74-1-5.43-.36-1.55-.73-3.11-1.15-4.88,3.13-.57,4.47,1.73,5.93,3.56,3,3.74,3.48,3.91,6.84.45,1.48-1.53,2.88-2.17,4.9-1.35.91.37,2.05.33,2.83.86,6.63,4.51,14.49,5.66,21.86,8.16.85,2.57,1.73,5.12,2.53,7.7s.44,5-2,6.76a8.24,8.24,0,0,1-6.77.48,89.81,89.81,0,0,0-9.67-2.66c-2.64-.55-5.42-2.59-7.87-1.4-3.64,1.76-7.51,3.29-10.62,6.06-5.28,2.07-9.76,7.33-16.37,4.05Z"
                transform="translate(-117.68 -96.71)" fill="#05c404" />
        </g>
        <g id="Bishu">
            <path
                d="M456.4,452.51c6.61,3.28,11.09-2,16.37-4.05,2.44,6.52,5.1,13,1.86,20.1a9.66,9.66,0,0,0-.38,2.89c-2.48,4.2.06,7.5,1.92,11,3.77,7,2.13,11.78-5.05,15.16a8.41,8.41,0,0,0-1.46,1.11c-4.24,2.25-8.47,1.23-12.7-.05,2.2-7.81.17-15.56-.39-23.32-.3-4.26-.63-8.44,1-12.47C459.13,459.13,459.07,455.69,456.4,452.51Z"
                transform="translate(-117.68 -96.71)" fill="#c50404" />
        </g>
        <g id="Inaba">
            <path
                d="M507.7,446c2.46-1.72,2.85-4.08,2-6.76s-1.68-5.13-2.53-7.7c2.82-1.39,5.4-1.72,7.33,1.46.23.38.85.85,1.18.77,5.17-1.14,10.75,2.17,15.69-1.6,2.2-1.68,4.67-1.27,7,0a34.1,34.1,0,0,0-1.13,16.51c.66,4.34-1.32,8.26-2.44,12.3l-6.53,2a9.39,9.39,0,0,1-2.6,0c-4.06-1.21-9-.88-10.5-6.48C514,452.11,511.76,448.36,507.7,446Z"
                transform="translate(-117.68 -96.71)" fill="#c50404" />
        </g>
        <g id="Mimasaka">
            <path
                d="M507.7,446c4.06,2.38,6.32,6.13,7.49,10.48,1.5,5.6,6.44,5.27,10.5,6.48a9.39,9.39,0,0,0,2.6,0c-1.15.67-2.45,1.1-2.51,2.84-.15,4-2.64,6.17-6.07,7.62a9.24,9.24,0,0,0-5.77,7.09c-6.74,1.75-12.72-1.35-18.9-3-7-1.88-13.86-4-20.79-6.06a9.66,9.66,0,0,1,.38-2.89c3.24-7.08.58-13.58-1.86-20.1,3.11-2.77,7-4.3,10.62-6.06,2.45-1.19,5.23.85,7.87,1.4a89.81,89.81,0,0,1,9.67,2.66A8.24,8.24,0,0,0,507.7,446Z"
                transform="translate(-117.68 -96.71)" fill="#c5c507" />
        </g>
    </g>
    <g id="Kanto">
        <g id="Musashi">
            <path
                d="M800,484.34c1.3-1.78,1.3-4,2.16-5.95,1.81-1.22,2.17-5,4.63-4.26,4,1.17,6.66-1.27,9.88-2.22,1.29-.39,2.51-1.43,3.91-.85,2.74,1.14,3.58-.07,4.31-2.6,1.15-3.95,7.66-6.16,11.12-4,3.71,2.28,7.45,4.52,11.08,6.93,4.75,3.15,9.77,4.79,15.49,3.51,1.89,7.48,2.64,15.16,4,22.73.2,1.08.27,2.93.82,3.1,4.87,1.53,1.92,4.63,1.58,7.14-.48,3.46-3,6.76-.75,10.4-.58,3.92-2.49,5.23-6.28,3.43-2.27-1.08-3.88-.44-4.14,2.33-.18,2-1.67,2.58-3.28,3.08-3.55,1.1-6.86,2.44-7,7a1.78,1.78,0,0,1-1.67,1.73c-1.79-.1-2.76-1.1-3.66-2.65-2.56-4.39-4.21-9.45-7.79-13.09-4.35-4.41-9.29-8.24-14-12.32-1.11-1-2.28-1.91-3.32-3-2.31-2.34-5.76-3.67-6.5-7.41-1-5.31-3.83-9.32-8.83-11.67A10.84,10.84,0,0,1,800,484.34Z"
                transform="translate(-117.68 -96.71)" fill="#0405c6" />
        </g>
        <g id="Hitachi">
            <path
                d="M912,430.86c4.85,6.91,8.4,8,16.2,4.92a9.31,9.31,0,0,1,9.42,2.32c1.47,1.67,3,3.33,4.44,5,.53,2.59-.56,4.36-2.49,6.08-5.29,4.72-10.43,9.6-14,15.89a29.84,29.84,0,0,0-2.28,5.87c-1.06,3.28-2,6.25-4.52,9.23A15.21,15.21,0,0,0,916,493.89c2.52,9,4.79,18,7.21,27,.33,1.21.86,2.35.15,3.58-2.26-1.93-4.41-4-6.8-5.78-4.93-3.59-8.51-9.22-15.24-10.14-3.47-.48-6.11-2.47-8.61-4.78a58.65,58.65,0,0,0-5.46-4.49c-5-3.62-7.71-8-5-14.29,1-2.32.3-4.1-1.24-6.08-1.88-2.42-4.7-4-5.91-7q7.44-1.79,14.88-3.59a7.17,7.17,0,0,1,3.68,0c3.4.93,9.78-2.31,10.55-5.87,2.19-10.07,7.11-19.54,6.78-30.17C911,431.65,911.14,431,912,430.86Zm-18.62,60.95c-.42.76-.63,1.35.12,2a102.78,102.78,0,0,0,10.52,8.8c.9.62,2,1.74,2.91,1.14,1.2-.79.3-2.2,0-3.37-.41-1.68-.61-3.41-1-5.09-.68-2.88-2.57-4.71-5.31-6.15-.59,2.13,2.72,4-.42,5.73C896.27,497,896.09,492.13,893.33,491.81Zm18.17,2c-1.83,4.26.27,12.73,3.45,15.27C915.27,503.65,912.79,499.25,911.5,493.8Z"
                transform="translate(-117.68 -96.71)" fill="#05c404" />
        </g>
        <g id="Shimosa">
            <path
                d="M875.12,471.91c1.21,2.95,4,4.56,5.91,7,1.54,2,2.26,3.76,1.24,6.08-2.74,6.29-.07,10.67,5,14.29a58.65,58.65,0,0,1,5.46,4.49c2.5,2.31,5.14,4.3,8.61,4.78,6.73.92,10.31,6.55,15.24,10.14,2.39,1.75,4.54,3.85,6.8,5.78a8.68,8.68,0,0,1,1.64,2.43c.38,1.48.3,3.51-2,2.66-5.6-2.08-11.07-1.62-16.6,0-1.45-1.5-3-2.95-4.35-4.53-2.79-3.2-6.57-3.28-9.19-.11a41.26,41.26,0,0,0-3,3.73c-2.47,3.83-6,3.8-9.81,2.91a33.45,33.45,0,0,1-3.83-1.34c1.65-1.9,1.42-3.64-.14-5.57-2.18-2.71-3.27-6.65-7.84-6.41-2.25-3.64.27-6.94.75-10.4.34-2.51,3.29-5.61-1.58-7.14-.55-.17-.62-2-.82-3.1-1.38-7.57-2.13-15.25-4-22.73l.78-.72C867.39,474.14,871.21,472.82,875.12,471.91Z"
                transform="translate(-117.68 -96.71)" fill="#c50404" />
        </g>
        <g id="Kazusa">
            <path
                d="M876.18,530.22a33.45,33.45,0,0,0,3.83,1.34c3.79.89,7.34.92,9.81-2.91a41.26,41.26,0,0,1,3-3.73c2.62-3.17,6.4-3.09,9.19.11,1.38,1.58,2.9,3,4.35,4.53-.53,2.41-2.95,2.3-4.51,3.31-5.2,3.37-9.78,7.33-11.46,13.53-.71,2.58,1.15,5.22-.13,8.21-2.1,4.88-5.21,8.06-10.5,8-6.3-.12-12,2-17.78,3.91-1.56.52-2.64,1.31-2.79,3-.34,3.9-3.73,4.7-6.43,5.92-2.37,1.07-5.41-.92-6.17-3.5-.13-.48-.4-.92-.52-1.4-1.39-5.43-1.39-5.43,4.23-4.44-1.25-2.35-2.67-4.65.14-6.72.7-.52.26-1.2-.05-1.95-1.55-3.78-.5-6,3.26-7.34.75-.27,1.79-.06,2-1.27s-.65-1.43-1.42-1.82c-3.19-1.62-1.35-4.34,0-5C861.78,538.49,867.86,532.27,876.18,530.22Z"
                transform="translate(-117.68 -96.71)" fill="#c5c507" />
        </g>
        <g id="Sagami">
            <path
                d="M803.29,541.41c-2.15-3.59-1.42-6.68,1.9-9,2.53-1.78,2-3.06-.07-4.75s-3.77-3.59-5.64-5.41c3.29-1.06,6.51-2.5,9.88-3.1,5.92-1.06,10.11-3.47,10.32-10.17,0-.42.46-.83.7-1.24,4.68,4.08,9.62,7.91,14,12.32,3.58,3.64,5.23,8.7,7.79,13.09.9,1.55,1.87,2.55,3.66,2.65a14.39,14.39,0,0,1-.25,3.3c-.76,2.44-1,4.47,2.36,4.84.76.08,1.49.51,1.46,1.39a2,2,0,0,1-1.74,2.12c-3.42.36-4.84,2.44-5.3,5.62-.13.93-.08,2.57-1.84,2.15s-1-1.58-.84-2.71c.66-4.24.57-8.38-2.3-12-1.92-2.39-8.8-4.6-11.79-3.67s-5.88,2-8.85,2.91c-2.69.8-5.17,1.55-5.77,4.92-.34,1.89-2.44,2.29-3.87,3.22A31.51,31.51,0,0,0,803.29,541.41Z"
                transform="translate(-117.68 -96.71)" fill="#c50404" />
        </g>
        <g id="Shimotsuke">
            <path
                d="M875.12,471.91c-3.91.91-7.73,2.23-11.81,2.24a15.06,15.06,0,0,0-9.09-5.9,8.46,8.46,0,0,1-4.41-13.92c1.53-1.79,3.19-3.48,4.81-5.19,2-2.13,2.28-4-.66-5.57-1-.52-2.11-.95-2.42-2.17-.6-2.43,3.55-11.92,6-13.49-3.6-2.55-.63-5.59-.67-8.46,8.4-2.21,16.71-4.92,25.23-6.36,3.26-.55,6.1-1.22,8.7-3s5-.89,7.31.41c3.66,2.06,7,4.55,10.54,6.9,3.76,2.53,3.42,6.21,3.45,9.8a22.49,22.49,0,0,0-.14,3.68c-.81.13-1,.79-.94,1.39.33,10.63-4.59,20.1-6.78,30.17-.77,3.56-7.15,6.8-10.55,5.87a7.17,7.17,0,0,0-3.68,0Q882.56,470.14,875.12,471.91Z"
                transform="translate(-117.68 -96.71)" fill="#c5c507" />
        </g>
        <g id="Kozuka">
            <path
                d="M856.86,419.45c0,2.87-2.93,5.91.67,8.46-2.44,1.57-6.59,11.06-6,13.49.31,1.22,1.47,1.65,2.42,2.17,2.94,1.57,2.67,3.44.66,5.57-1.62,1.71-3.28,3.4-4.81,5.19a8.46,8.46,0,0,0,4.41,13.92,15.06,15.06,0,0,1,9.09,5.9l-.78.72c-5.72,1.28-10.74-.36-15.49-3.51-3.63-2.41-7.37-4.65-11.08-6.93-3.46-2.13-10,.08-11.12,4-.73,2.53-1.57,3.74-4.31,2.6-1.4-.58-2.62.46-3.91.85-3.22.95-5.89,3.39-9.88,2.22-2.46-.73-2.82,3-4.63,4.26-4.55-4.26-4.57-9.64-3.34-15.08.77-3.43.82-7.13,5-9.32,2.61-1.37.23-8.55-2.87-9.5a15.11,15.11,0,0,0-3.62-.9c-3.52-.16-4.47-2.87-5.24-5.42s.14-4.86,2-6.78a17.68,17.68,0,0,1,6-3.71c1.58-.69,3.23-1.2,3.74-3.27s2-.81,3-.59c4.26.88,6.57,0,7.9-3.18a19.65,19.65,0,0,1,3.28.66c3.15,1.2,5.94,1.39,7.94-2a2.32,2.32,0,0,1,3.19-1.09c2.4,1.16,3.06-.16,3.34-2.19.06-.48.4-.95.41-1.42.12-6.85,5.71-7.42,10.37-9.1,1.36-.49,1.76.33,2.15,1.33.76,2,1.65,3.9,2.29,5.91.56,1.75,1.52,2.8,3.42,2.83Z"
                transform="translate(-117.68 -96.71)" fill="#05c404" />
        </g>
    </g>
    <g id="Shikoku">
        <g id="Tosa">
            <path
                d="M488.46,582.56c-6.32,4.69-10.21,11.08-12.71,18.42-1.59-.15-1.73-1.44-2.22-2.3-3.57-6.26-7.16-12.51-10.55-18.87-1.25-2.34-3.17-3.44-5.33-4.78-8.45-5.21-16.61-4.61-25.78-1.38-6.77,2.38-11.44,6.05-14.72,11.94-2.95,5.3-8.14,7.85-12.82,11-.4.27-1,.69-1.31.57-4.64-1.76-4.68,1.73-5.32,4.57s-1.14,5.18-4.47,6.19c-2.36.71-2,2.75-.18,4s1.74,2.4,1.06,4.11a1.61,1.61,0,0,1-1.91,1.21,3.12,3.12,0,0,1-3.3-2.88c-.37-2.3-1.78-3.21-3.95-3.7-4-.9-7.89-2-11.16-4.82-1.72-1.48-1.07-2.71-.78-4.27.37-2,1.61-1.76,3.05-1.5,2.84.5,1.69-1.83,2.09-3.05a141.41,141.41,0,0,1,.16-16.34c.1-2.1.63-3.16,2.73-2.23,2.45,1.08,4.46.15,6.76-.6,6.26-2,10.74-5.33,11.07-12.55.15-3.21,2-3.7,4.66-2.46,3.36,1.58,5.68.92,8.07-2.33A47.72,47.72,0,0,1,425.77,548c7.53-4.49,12-4.33,19.08.94.67.49,1.38,1.49,2.18.47,3-3.84,6.7-2,10.25-1.36,4.81.49,8.38,3.4,12.08,6.12,1.81,1.33,3.34,2.74,6.29,1.76,3.35-1.11,5,1,3.76,4.4s-.67,6,2.38,8c2.31,1.54,2.9,3.51,2.1,6.34C482.59,579.22,483.91,581.16,488.46,582.56Z"
                transform="translate(-117.68 -96.71)" fill="#c5c507" />
        </g>
        <g id="Iyo">
            <path
                d="M457.28,548c-3.55-.61-7.24-2.48-10.25,1.36-.8,1-1.51,0-2.18-.47-7.11-5.27-11.55-5.43-19.08-.94a47.72,47.72,0,0,0-14.17,12.56c-2.39,3.25-4.71,3.91-8.07,2.33-2.67-1.24-4.51-.75-4.66,2.46-.33,7.22-4.81,10.51-11.07,12.55-2.3.75-4.31,1.68-6.76.6-2.1-.93-2.63.13-2.73,2.23a141.41,141.41,0,0,0-.16,16.34l-.36-.1c-10.06-2.82-10-2.82-13.2-12.83-.42-1.31-.85-2.63.92-3,3.74-.73,3.65-3.17,3.25-6.12-.25-1.85-1.12-4.48,2.93-3.18,2.18.69,2.26-1.5,1.77-3.17-.43-1.47-2.62-2.58-.66-4.53.56-.56-.52-.93-1.07-1-2.57-.53-2.69-2.11-2-4.2a26.26,26.26,0,0,0,.95-3.61c.68-3.56-1.07-5.17-4.56-4.12S359.21,553,356,554.91c-2.66,1.59-5.12-.73-7.81-1.09,3.33-4.54,5.37-5.45,10-4.24a6.82,6.82,0,0,0,4.34-.64c10.27-3.84,20.45-8,30.83-11.51,3.56-1.21,4.37-3.62,5.1-6.52.56-2.24.51-4.79,4.13-4.32,1.29.17,1.91-1.61,2.38-2.64,2.64-5.82,8.56-5.85,13.4-7.75,1.69-.67,2,1,2.46,2.12,1.3,3.37,2.66,6.72,3.7,10.17.71,2.37,2.25,3.38,4.43,3.94,6.28,1.6,12.76,2,19.11,3.11,2.7.49,4.59-1.75,7-2.25,2.51,1.73,5.7,1.47,8.34,2.84-3.28,1.46-4.5,4.27-5.07,7.57C458.14,545.15,457.66,546.57,457.28,548Z"
                transform="translate(-117.68 -96.71)" fill="#0405c6" />
        </g>
        <g id="Awa">
            <path
                d="M457.28,548c.38-1.44.86-2.86,1.11-4.31.57-3.3,1.79-6.11,5.07-7.57,4.55-.58,9.12-1.06,13.64-1.81,2.15-.36,3.56,0,4.41,2.12s2.4,2.67,4.42,1.5c5.88-3.4,11.9-3.35,18.09-.87,1.59.64,3.35.86,5,1.43,1.91.67,3,.13,3.5-1.85,2,.57,4,1.28,6.11,1.66s2.57,2.19,3.14,3.76c.71,1.94-1.2,2.31-2.24,2.86-3.53,1.85-2.78,5.57-3.93,8.44-.26.66.65.91,1.11,1.3,3.17,2.65,3.49,7.12.56,9.81-1.09,1-1.27,1.66-.25,2.72.67.71,1.21,1.54,2.15,2.76-11.56,1.64-21.44,6.4-30.7,12.6-4.55-1.4-5.87-3.34-4.57-7.93.8-2.83.21-4.8-2.1-6.34-3.05-2-3.56-4.58-2.38-8s-.41-5.51-3.76-4.4c-2.95,1-4.48-.43-6.29-1.76C465.66,551.41,462.09,548.5,457.28,548Z"
                transform="translate(-117.68 -96.71)" fill="#05c404" />
        </g>
        <g id="Sanuki">
            <path
                d="M504.08,525.81c.33-1.8-1.37-2.63-3.1-3.11-1.31-.37-3.05-.5-2.82-2.73.32-3.18-1.34-2.61-3.07-1.41-3.08,2.14-5.49,1.32-7.67-1.43-1-1.27-2.23-2.35-3.34-3.54-2.06-2.2-5-2.11-6.09.71-1.5,3.8-5.27,3.28-7.8,5-3.59,2.48-6.23.82-8.8-1.69-.1-.09-.45.06-.87.13.27,5.86,1.23,12.06-5.4,15.52,2.51,1.73,5.7,1.47,8.34,2.84,4.55-.58,9.12-1.06,13.64-1.81,2.15-.36,3.56,0,4.41,2.12s2.4,2.67,4.42,1.5c5.88-3.4,11.9-3.35,18.09-.87,1.59.64,3.35.86,5,1.43,1.91.67,3,.13,3.5-1.85-1.49-1.32-2.93-2.7-4.49-3.94C505.77,530.93,503.43,529.42,504.08,525.81Z"
                transform="translate(-117.68 -96.71)" fill="#c50404" />
            <path
                d="M513,509.18c-1.87-1.16-4.23-2.22-6.66-.91-1.2.64-2.38,1.44-4.17.87-.85-.62-1.54-.28-1.94,1s-.32,2.32,1,2.73a3.62,3.62,0,0,1,2.49,2c1.39,2.84,4.47,2.76,6.82,2.92,2,.13,1.6-2.67,2.05-4.22S514.63,510.22,513,509.18Z"
                transform="translate(-117.68 -96.71)" fill="#c50404" />
        </g>
    </g>
    <g id="Kyushu">
        <g id="Hyuga">
            <path
                d="M320.2,589.31c-1.59,4.1-9.17,9.67-13.33,9.8-2.71.08-4.12,2.11-3.14,4.62,1.07,2.7,1.74,5.1-2.56,5.06-1.19,0-1.65,1.05-2.24,1.8-8.18,10.37-16.52,20.62-24.35,31.24-2,2.75-4.22,6.4-1.76,10.38.18.29-.13,1-.36,1.39-2.47,4.4-4.08,9.33-8.78,12.24-3.21,2-5.16,5.34-7.54,8.22-1.11,1.33-1.55,4.35-3.6,3.56-2.23-.85-4.8-2.21-5.53-5.14a33.4,33.4,0,0,0-1.25-3.47c1.09-1.35,2.27-2.65,3.26-4.07,3.22-4.63,3.6-3.09-1-7-1.91-1.62-4.57-2.55-4.63-5.83-.08-4.1,0-8.25-4.9-10.4a2.75,2.75,0,0,1-.22-5.07c3.83-1.72,3.34-4,1.84-6.67-2-3.57-4.28-7-6.44-10.48l1.71-6.15c.73.1,1.48.18,2.21.3,5.91,1,11.53,5.2,17.88,1.64.17-.1.48.05.72.07,3.74.26,5.12-1.49,3.76-5.2-.63-1.73-.15-2.3,1.28-3.12,3.69-2.12,4.09-4.38,1-7.2s-.55-5.25-.27-7.88a4,4,0,0,1,3.94-3.83c3.51.18,5.4-2.1,7.69-3.85,4.84-3.69,9.62-7.46,14.42-11.2,2.49,5.22,2.49,5.22,7.78,3.77a3.38,3.38,0,0,1,4.36,4.16c-.27,1.24-1.59,3,0,3.69a63,63,0,0,0,9,2.46,1.07,1.07,0,0,0,1.33-1c.51-3,2.46-2.29,4.22-1.58C317,585.55,320.94,584.76,320.2,589.31Z"
                transform="translate(-117.68 -96.71)" fill="#c50404" />
        </g>
        <g id="Higo">
            <path
                d="M288,573.08c-4.8,3.74-9.58,7.51-14.42,11.2-2.29,1.75-4.18,4-7.69,3.85A4,4,0,0,0,262,592c-.28,2.63-2.69,5.16.27,7.88s2.67,5.08-1,7.2c-1.43.82-1.91,1.39-1.28,3.12,1.36,3.71,0,5.46-3.76,5.2-.24,0-.55-.17-.72-.07-6.35,3.56-12-.64-17.88-1.64-.73-.12-1.48-.2-2.21-.3-1.16-2-3.18-3.13-4.93-4.46-2.21-1.69-4.59-2.69-7.44-.68-2.12,1.5-5.19.2-6.46-2.22-.73-1.41-1.52-2.78-2.28-4.18.58-3.81,2.89-5.76,6.61-6.4a3.57,3.57,0,0,0,3.22-3.07c.48-2.3,3-2.74,4.62-4.06,1.12-.94,3.1-1.39,3.21-2.89.31-4.37,3.16-6.09,6.71-7.36.89-.31,2-.53,1.92-1.9s-1.33-1.32-2.2-1.59c-1.54-.48-3.14-.77-4.69-1.21-.84-.24-1.67-.55-1.55-1.74a2,2,0,0,1,1.43-2l4.65-1.37c4.88-1.42,6.15-5.36,3-9.34-.31-.39-.93-.9-.85-1.17,1.37-4.26-2.74-6.59-3.5-10.08a16.44,16.44,0,0,0,12.46-5.58c2.74-3,6-3.12,9.17-.72,2.87,2.15,5.46,4.67,8.18,7,2,2.2,5,2.52,7.39,2.51,1.86,0,1.38-3.27,2.2-5,.16-.33.18-.72.31-1.07a3.83,3.83,0,0,1,2.87-2.15c1.29-.36,1.32,1.15,1.83,1.89,4.32,6.34,7.42,13,6.58,21A56,56,0,0,0,288,573.08Z"
                transform="translate(-117.68 -96.71)" fill="#c5c507" />
        </g>
        <g id="Bungo">
            <path
                d="M288,573.08a56,56,0,0,1-.18-7.43c.84-8-2.26-14.7-6.58-21-.51-.74-.54-2.25-1.83-1.89a3.83,3.83,0,0,0-2.87,2.15c-.13.35-.15.74-.31,1.07-.82,1.7-.34,5-2.2,5-2.43,0-5.41-.31-7.39-2.51,2-5.47,3.08-11.2,4.72-16.77,1-3.54,1-7.8,5.23-9.67.54.5,1.28.9,1.59,1.51,4.46,8.7,13.51,10.8,21.22,14.77,3.19,1.65,5.83-.55,7.62-2.45,1.38-1.46,3.54-4.26.14-6.55-.3-.2,0-1.41.15-2.11.42-1.69.93-3.36,1.41-5,1.74,1.3,3.11.65,4.64-.6,2.46-2,4.67-4.51,8.21-4.82,3-.26,4.86.7,6.63,3.4,3.88,5.91,1.58,11.43-.26,17-.76,2.33-8,5.28-10.65,4.71-1.32-.29-2.72-.85-4-.63-1,.19-2.61,1-2.48,2.4.19,2.09.81,4.24,3.05,5.15,1.37.56,2.91.68,4.3,1.2,1.93.72,3.71,1.1,5.32,3.2,1.48,1.93,5.25,2.1,8.26,3.14-.39.55-.58,1-.94,1.29-3.14,2.06-6.22,3.52-2.15,8.16,1.37,1.57,1.87,3.54,4.36,3.93.88.13,2,.63,1.49,2.05a1.37,1.37,0,0,1-2.06.87c-3.5-1.41-3.63,1.45-4.21,3.46-.82,2.85,1.82,2.4,3.21,2.91a11,11,0,0,1,3.05,1.25c-4,4.32-8.36,8-14.34,9.13.74-4.55-3.18-3.76-5.5-4.71-1.76-.71-3.71-1.38-4.22,1.58a1.07,1.07,0,0,1-1.33,1,63,63,0,0,1-9-2.46c-1.6-.67-.28-2.45,0-3.69a3.38,3.38,0,0,0-4.36-4.16C290.51,578.3,290.51,578.3,288,573.08Z"
                transform="translate(-117.68 -96.71)" fill="#0405c6" />
        </g>
        <g id="Tsukushi">
            <path
                d="M235.21,530.38c6.18-3.44,12.73-6.19,18.68-10.06a13,13,0,0,0,1.13-.88c-.16-1.35-1.33-1.19-2-1.25-9.65-.91-14.6-8.77-21.15-14.24-1.84-1.54.77-3,.39-4.63,1.17-2.55,2-5.24,5.06-6.45,2.31-.92,4-.81,4.61,1.76s2.57,3.45,4.94,3.51a3.94,3.94,0,0,0,4.35-3.68c0-.24.13-.61.29-.66,4.22-1.55,5.83-5.57,8.43-8.69a6.19,6.19,0,0,1,7.63-1.78c1.88.75,3.69,1.09,5.65-.18,4.66-3,9.21-1.48,11.36,3.72.37.91.64,1.87,1,2.81a15.25,15.25,0,0,1-4.47,7.17c-2.82,2.63-5.51,5.4-8.19,8.18-2.86,3-3.08,5.86-.91,9.33,1.58,2.52,3.1,5.07,4.65,7.6-4.23,1.87-4.19,6.13-5.23,9.67-1.64,5.57-2.72,11.3-4.72,16.77-2.72-2.36-5.31-4.88-8.18-7-3.21-2.4-6.43-2.28-9.17.72a16.44,16.44,0,0,1-12.46,5.58c-1-.54-.89-1.45-.52-2.22C238.83,540.2,237.56,535.26,235.21,530.38Z"
                transform="translate(-117.68 -96.71)" fill="#05c404" />
        </g>
        <g id="Buzen">
            <path
                d="M293.19,487.46l1.66-.5c2.13.81.73,2,.21,2.91-3.27,5.94-3.24,12.24-2.14,18.68.29,1.66,1.47,2.43,2.86,3.12a39.94,39.94,0,0,1,13,10.42c-.48,1.68-1,3.35-1.41,5-.17.7-.45,1.91-.15,2.11,3.4,2.29,1.24,5.09-.14,6.55-1.79,1.9-4.43,4.1-7.62,2.45-7.71-4-16.76-6.07-21.22-14.77-.31-.61-1.05-1-1.59-1.51-1.55-2.53-3.07-5.08-4.65-7.6-2.17-3.47-1.95-6.37.91-9.33,2.68-2.78,5.37-5.55,8.19-8.18a15.25,15.25,0,0,0,4.47-7.17Z"
                transform="translate(-117.68 -96.71)" fill="#c50404" />
        </g>
        <g id="Osumi">
            <path
                d="M248,658c-1.91-1.62-4.57-2.55-4.63-5.83-.08-4.1,0-8.25-4.9-10.4a2.75,2.75,0,0,1-.22-5.07c3.83-1.72,3.34-4,1.84-6.67-2-3.57-4.28-7-6.44-10.48-.46,1.4-.91,2.81-1.38,4.21-.22.67-.32,1.83-1.25,1.49-3.46-1.29-5.6,1.43-8.13,2.63-7.49,3.55-7.43,3.68-6.19,11.83,3.92,1.07,8.07,1.47,10.72,5.31a3,3,0,0,1,0,4c-1.45,1.75-2.12,4.61-4.88,4.71-2,.06-2-2.12-2.24-3.43-.49-2.39-2.34-2.62-4-2.54-2,.1-1.42,2.29-2,3.54-.74,1.68.27,2.57,1.88,2.83,2.29.36,2.26,1.73,1.67,3.49-.66,2-1.26,4.07,0,6.13,1.09,1.81-.16,11.61-1.63,12.91-3.2,2.83-6.29,5.8-10.19,7.71-2.48,1.22-1.49,3.08-.72,4.78,1,2.25,2.12.8,3.08-.09s2.16-.32,3.15,0a6.93,6.93,0,0,0,4.71-.13c3.06-1.08,6.18-2,9.24-3,1.14-.39,2.62-.44,3.07-1.86.78-2.51,2.49-1.82,4.22-1.4,6.87,1.68,7.32,1.18,5.46-5.77-.29-1.09-.31-2.3-1.67-2.64-2.32-.57-.95-2-.49-2.83,2-3.66,4.38-4.2,9.62-2.41,1.09-1.35,2.27-2.65,3.26-4.07C252.24,660.31,252.62,661.85,248,658Z"
                transform="translate(-117.68 -96.71)" fill="#05c404" />
            <path
                d="M222.31,711.92c-2-.48-3.39-.6-3.79,1.94-.25,1.63-1.7,2.41-3,3.12a9,9,0,0,0-5,7.32c-.32,3-1.91,4.89-4.52,6.32-3.8,2.09-9.22,3.41-6.06,8.76.26,2.2-.63,3.54,1.11,4.28,3.32,1.41,7.08-.24,7.73-3.87s2.64-6.44,5.14-9.2c4-4.42,9.25-8.18,9.81-15C223.84,714.11,224.84,712.53,222.31,711.92Z"
                transform="translate(-117.68 -96.71)" fill="#05c404" />
            <path
                d="M173.69,729.51c-3.88.82-4.42,3.34-5,6.57.92,2.11,1,5,3.29,6.59a10.69,10.69,0,0,0,13.48-1.2,5.89,5.89,0,0,0,1.35-7.36C184.26,728.76,180.77,728,173.69,729.51Z"
                transform="translate(-117.68 -96.71)" fill="#05c404" />
        </g>
        <g id="Satsuma">
            <path
                d="M230.44,608.89c-2.21-1.69-4.59-2.69-7.44-.68-2.12,1.5-5.19.2-6.46-2.22-.73-1.41-1.52-2.78-2.28-4.18-3.59,2.06-7.46,1.41-11.29,1.17l.05-.05-.05,0v0a9.55,9.55,0,0,0-3.78,6.35c-.69,3.41-1.8,6.73-2.76,10.08a3.81,3.81,0,0,1-1.09,2.27c-4.3,3.58-4.47,5.31-1.53,9.89,1.11,1.74,3.37,3.3,2.87,5.44-1.12,4.76-1.8,9.72-5.94,13.34-3.79,3.32-3.72,3.61-6.45-.63-.8-1.25-1.53-1.49-2.71-.89s-2.22.63-1.92,2.56c1.73,10.84,1.66,10.85,11.61,15.8a12.89,12.89,0,0,0,1.67.82,4.47,4.47,0,0,1,3.31,4.46c0,3.55,2.31,4.75,5.23,5.07,2.74.31,5.62.1,7.43-2.26s.3-4.75-1.44-6.62c-2.11-2.27-2.37-4.61-1.22-7.45.63-1.56,1.92-3.82.91-5-3.29-3.67-.14-5.14,2-6.57,3.78-2.49,6.9-5.26,7.52-10-1.24-8.15-1.3-8.28,6.19-11.83,2.53-1.2,4.67-3.92,8.13-2.63.93.34,1-.82,1.25-1.49.47-1.4.92-2.81,1.38-4.21l1.71-6.15C234.21,611.34,232.19,610.22,230.44,608.89Z"
                transform="translate(-117.68 -96.71)" fill="#0405c6" />
            <path
                d="M197,592.07c2.81-1.59,5.14-5.57,7.92-5.13,4.71.75,4.39-2.3,5.27-4.7s1.36-4.79,2.28-7.09c1.13-2.8.66-4-2.6-4.78-2.92-.66-5.16-.61-7.38,1.49-1.44,1.36-3.14,2.44-4.7,3.66-3.49,2.74-3.95,5.13-1.55,9.09-.44.18-.69.38-.89.35-1.8-.28-3,.1-3.4,2.19-.5,2.49-.22,5,1.43,6.62C194.62,595,195.75,592.75,197,592.07Z"
                transform="translate(-117.68 -96.71)" fill="#0405c6" />
            <path
                d="M217.76,586.27a5,5,0,0,0,1.09.23c1.88.25,8.46-4.54,7.93-6.06-.84-2.4-.16-4.59.22-7.72a15.21,15.21,0,0,1-8.56,2.75c-4,.19-6.75,3.08-6.58,6.25C212.05,585.32,215.29,585.39,217.76,586.27Z"
                transform="translate(-117.68 -96.71)" fill="#0405c6" />
            <path
                d="M204,597.16c.28-2.31,2.87-5.23.82-6.71-2.58-1.86-4.21,1.92-6.29,3.14-2.32,1.35-3.89,4-2.61,6.25s3.68,4.42,7,3.11C202.71,600.91,203.77,599.1,204,597.16Z"
                transform="translate(-117.68 -96.71)" fill="#0405c6" />
            <path
                d="M163.66,618.33c-2.08,1.06-4,2.39-6.06,3.59A2.92,2.92,0,0,0,156,625c.32,1.86,2,.85,3.11,1.25,3.44.24,4.89-2.88,7.2-4.53.86-.62,2.6-1.53,1.77-2.79C167.1,617.49,165.17,617.55,163.66,618.33Z"
                transform="translate(-117.68 -96.71)" fill="#0405c6" />
            <path
                d="M174.13,610.74a2.06,2.06,0,0,0-2.3,1.49,4.66,4.66,0,0,0,1.8,4.89c1.32.82,3.21,2.12,4.65.71S176.08,610.82,174.13,610.74Z"
                transform="translate(-117.68 -96.71)" fill="#0405c6" />
        </g>
        <g id="Hizen">
            <path
                d="M253,518.19c-9.65-.91-14.6-8.77-21.15-14.24-1.84-1.54.77-3,.39-4.63-2.49-.19-5-.13-7.14,1.27-.9.59-1,2.52-2.71,1.84s-.48-2.19-.73-3.29c-.63-2.68-1.39-5.37-4.12-6.67-2.92-1.4-4.39.93-5.77,2.78a3.06,3.06,0,0,1-3.87,1.25c-1.38-.51-2.31-.57-2.82,1.16s0,2.32,1.57,2.7c1.32.32,2.81.61,2.43,2.59-.2,1.09-.19,2.42-1.63,2.6a3.67,3.67,0,0,1-4.09-1.92c-.63-1.24-1.22-2.59-2.77-2.79-3.75-.5-6.18-2.7-8.07-6.68-.51,3.19-1.77,4.11-4.12,2.86a2.13,2.13,0,0,0-2.67.71c-2.7,2.78-5.41,5.53-8.07,8.35-1.26,1.33-.78,2,.92,2.52,3.12.94,7.78-1,9.65-4.35,1.09-2,3.19-2.77,4.54-1.88s-.07,3-.76,4.37c-.4.79-1.53,1.22-2.33,1.81-.65.48-1.27,1.19-.59,1.85,2.47,2.4,3.83,6,7.32,7.24,1.77.64,2.94,1.22,1.93,3.32s-.24,3.46,1.72,4.56a46.22,46.22,0,0,1,4.59,3.22c1.67,1.2,2.55,2.77,1.9,4.83-1,3.1-2.22,6.07,0,9.29a2.27,2.27,0,0,1-1.32,3.08c-.9.34-2.49.19-2.34-1,.43-3.62-2.56-3.33-4.39-3.8-2.16-.56-2.67-1.38-1.94-3.35.34-.93.27-2.09.8-2.86,2.3-3.34-.8-6-1.23-9-.15-1-3.53-2.33-4.67-.78a9.39,9.39,0,0,1-3.83,3.18,1.16,1.16,0,0,0-.55,1.85c1.6,2.32.49,4.58-.13,6.8a4.7,4.7,0,0,0,2.32,5.73c4.42,2.64,5,6.07,1.54,9.94-1.41,1.58-2.78,3.2-4.2,4.77-.92,1-.91,1.68.56,2.08s2.5.73,3.84-.32c2.44-1.92,5.14-3.52,7.6-5.43a6.68,6.68,0,0,1,6.91-1.2c2,.69,4.2,2,6.56-.07.61-.52,3.69,0,4,1.67a4,4,0,0,1-1.82,4.54,25.55,25.55,0,0,1-2.78,1.11c-1.26.48-2.94.69-2.95,2.4,0,2.4,1.89,3.75,3.6,4.88,1.11.74,3,1.76,4,.47s1.78-1.22,3.12-1.07c2.61.28,8.22-3.78,9-6.24,2.12-7.18-2.6-12.39-10-11.13-1.77.31-3.79.28-4.2-2-.35-1.94,1.7-1.71,2.8-2.07,6-2,6.08-2,4.49-8.56a9.64,9.64,0,0,1,.14-5.87c.38-1,.74-1.76,1.93-2,3.75-.68,8-5.18,10.74,1.5.08.18.7.13,1.07.19,6.18-3.44,12.73-6.19,18.68-10.06a13,13,0,0,0,1.13-.88C254.86,518.09,253.69,518.25,253,518.19Z"
                transform="translate(-117.68 -96.71)" fill="#c50404" />
            <path
                d="M207.1,428.4c1.07-3.39,1.62-6.69,3.14-9.48,1.35-2.48,5.1-1.8,7-3.34s.68-5.41,3.6-6.95a2.83,2.83,0,0,0,1.69-1.87c.18-.78.37-1.61-.46-2a14.35,14.35,0,0,0-10.51-.54c-2.91,1-2.42,3.82-3,5.91-.54,1.85.23,4.38-3.2,3.45-.27-.08-.83.45-1.09.82C200.58,419.8,201.44,424.31,207.1,428.4Z"
                transform="translate(-117.68 -96.71)" fill="#c50404" />
            <path
                d="M133.8,527c.46-1.2-.67-2.68-1.66-3.57s-1.63.59-2.44,1c-2,1-3.5,0-4.9-1.4-.82-.81-.72-2.45-2.5-2.64-.52,1.94-1.87,4.11-1.38,5.71,1,3.34-.17,5.27-3.24,7.15,2.92,1.17,6.2.92,7,5.11C127,533,127.24,533,130,536.66a3.6,3.6,0,0,0,4,1.28,2.8,2.8,0,0,0,1-3.9C133.89,531.8,132.75,529.75,133.8,527Z"
                transform="translate(-117.68 -96.71)" fill="#c50404" />
            <path
                d="M192.31,441.2c1.29,1.19,2-.26,2.71-.95q4.29-4.12,8.48-8.38c.48-.49,1.85-1,.59-2-2.23-1.76-4.51-3.46-6.8-5.16-.87-.64-1.26.08-1.76.67a22.05,22.05,0,0,0-5.51,12C189.48,439.41,191.21,440.18,192.31,441.2Z"
                transform="translate(-117.68 -96.71)" fill="#c50404" />
            <path
                d="M157.35,513c4.64-.73,2.71-5,4-7.58-2.54,3.51-8.32,4-8.78,9.4-.05.61-.59,1.36-1.22,1.18-3.91-1.1-2.85,1.13-2.47,3.3a7.64,7.64,0,0,1-.59,3.61c-.78,2.26-.25,4.25.67,6.51,2.63-1.87,4.51-3.83,5.07-6.87.22-1.22.37-3.28,2.27-2.72,4.55,1.32,3.54-2,4.24-4-1.52-.95-3,1.38-3.86-.51C156.43,514.72,157,513.05,157.35,513Z"
                transform="translate(-117.68 -96.71)" fill="#c50404" />
            <path
                d="M214.58,467c-2.91-.47-6.33,3.6-5.89,7,.27,2.11,1.2,4.55,3.59,5.09s6.14-3.56,6.11-6.73C217.21,470.78,217.51,467.52,214.58,467Z"
                transform="translate(-117.68 -96.71)" fill="#c50404" />
            <path
                d="M141.62,520.05c-1.55,3.39-3.26.94-5.07.24a14.72,14.72,0,0,0-.82,3.3c0,2.22,2.26,4.52,3.63,3.82a7.47,7.47,0,0,0,4.13-5.78C143.76,519.91,141.91,519.41,141.62,520.05Z"
                transform="translate(-117.68 -96.71)" fill="#c50404" />
            <path
                d="M163.81,494c-1.56-.72-1.91.45-2,1.66-.18,2.31,1.8,2.45,3.2,2.79,1.56.37,1.41-1.29,1.86-2.19C167.1,493.85,164.94,494.55,163.81,494Z"
                transform="translate(-117.68 -96.71)" fill="#c50404" />
            <path
                d="M159.41,501.89c.27,0,.73-1,.71-1.53-.08-2.05-1.83-1.36-3.21-1.45C157.88,499.86,157.43,502,159.41,501.89Z"
                transform="translate(-117.68 -96.71)" fill="#c50404" />
        </g>
    </g>
    <g id="Kansai">
        <g id="Kii">
            <path
                d="M618.93,570.79c-2.54,2.72-5.47,5-4.31,9.7.62,2.51-1.76,3.77-4.38,3.68-3.78-.12-6.32,1.58-8.79,4.54-7.06,8.45-13.66,17.43-23.48,23.14-3.19,1.85-4.68,1.49-5.78-2-.25-.76-.76-.86-1.35-1-6.77-2-10.62-8-16.12-11.68-1-.64-.91-1.56-.58-2.65.47-1.59,1.26-3.16-1-4.51-1-.62-.47-2,1.21-2,.82,0,1.88.36,2.14-.87.19-.89-.63-1.3-1.23-1.69-6.21-4.12-9.2-11-14-16.31-1.39-1.55-.27-3.07,0-4.58s.66-2.41,2.85-2.21c2.65.24,3.7-2.11,2.35-4.42-1.22-2.1-.06-3.31,1.19-4.87,1.07-1.34,4.59-.93,3-4.42-.82-1.82.87-4.39-1.25-6.18-.41-.35-.47-1.11-.69-1.68,2.57.4,5.14,1,7.73,1.14,4.77.33,9.37,2.43,14.27,1.33.1.89.75,1,1.47,1.32,4.42,1.84,9.18-.37,13.58,1.24,0,6.37-2.08,11.53-8.08,14.59-3.47,1.77-6.46,3.84-3.83,8.45a2.76,2.76,0,0,1,0,1.46c-.66,5.61,2,9.54,7.46,10.89,1.68.42,3.41.65,5,1.21s2.39.39,3.21-1.26c1.18-2.36,8-5.13,10.63-4.62,4,.79,5.59-.31,6.89-4.11s1.64-7.78,3.5-11.35c2,1.66,3.8,3.59,6,4.88S619,568.77,618.93,570.79Z"
                transform="translate(-117.68 -96.71)" fill="#c5c507" />
        </g>
        <g id="Ise">
            <path
                d="M618.93,570.79c.09-2-.23-3.64-2.31-4.86s-4-3.22-6-4.88c-.17-1.88,2.76-4,.13-5.53-2.81-1.6-.56-3.16-.5-4.68s.82-2.08,2.69-2a11.83,11.83,0,0,0,7.23-2.4c.66-1,1.39-2,2-3.06,4.3-7.64,8.5-15.3,5-24.53,3.57.47,6.73,1.16,10.17-1.89,5.74-5.11,11.14-10.05,12-18.22.86-.47,1.68-1,2.57-1.41,3.19-1.39,7.46,1,6.75,4.26a7.64,7.64,0,0,0,2,7.64c.33.8,0,1.92,1.17,2.3l0-.05c-.11.7-.1,1.33.76,1.55l0-.06c.3,3.5-2.55,5.25-4.37,7.45-3.74,4.54-8.82,7.66-13.17,11.57-1.67,1.5-3,2.74-1.14,4.93.28.34.59,1,.44,1.32-1.78,3.27.62,5.28,2.45,7.09,3.41,3.39,5.23,8.72,11,9.35,1.09.12,1.66,1,1.15,2.23a1.45,1.45,0,0,0,.9,2.09c3.45,1.62,1.54,4.11.12,5.25a10.69,10.69,0,0,0-3.81,6.94c-.35,1.78-1.16,3.28-3.24,2.29-1.76-.84-5.56.26-4.37-3.85.57-2-.45-2.25-1.93-2.76-3.52-1.21-7-.22-10.36.25C630.32,568,624.65,569.54,618.93,570.79Z"
                transform="translate(-117.68 -96.71)" fill="#0405c6" />
        </g>
        <g id="Harima">
            <path
                d="M554.5,517.51c-3.93-1.36-5.32-5.32-8-7.95s-4.68-5.48-7.08-8.17c-1.61-1.81-3.35-2.3-5.93-1.38-2.25.81-4.92.9-6.06-2.56-1-2.95-4.48-3.17-6.19-2.24-3.27,1.78-6,.82-8.92,0-.77-5,.53-9.85,1.63-14.69a9.24,9.24,0,0,1,5.77-7.09c3.43-1.45,5.92-3.64,6.07-7.62.06-1.74,1.36-2.17,2.51-2.84l6.53-2c-.44,1.94-.19,3.27,2.25,3.55,3.29.38,6.66.75,8,4.69.37,1.1,1.82,1.14,2.88,1.44l11,3.16c-.22,7.23,1.65,13.59,7.67,18.2Z"
                transform="translate(-117.68 -96.71)" fill="#05c404" />
        </g>
        <g id="Tajima">
            <path
                d="M559,473.8l-11-3.16c-1.06-.3-2.51-.34-2.88-1.44-1.36-3.94-4.73-4.31-8-4.69-2.44-.28-2.69-1.61-2.25-3.55,1.12-4,3.1-8,2.44-12.3a34.1,34.1,0,0,1,1.13-16.51c3.58-.77,6.55-.77,10.27,1.34,4.76,2.7,10.75,3.25,16.21,4.73-.34,1.45-.66,2.9-1,4.33-1.32,5.13.48,8.67,5.81,9.94,3.12.74,4.7,2.29,5.31,5.22-7.64,2.89-15,6.05-15.72,15.81C559.23,473.62,559.08,473.71,559,473.8Z"
                transform="translate(-117.68 -96.71)" fill="#0405c6" />
        </g>
        <g id="Settsu">
            <path
                d="M554.5,517.51,566.66,492c1.32.32,2.63.7,4,1,4.13.79,7.82,2.17,9.62,6.47,1.41,3.38,4.53,3.84,7.63,4.28,1.31,2,4.06,3,4,5.88-6.18,11.76-10.4,24.76-21.16,33.64-4.9,1.1-9.5-1-14.27-1.33-2.59-.18-5.16-.74-7.73-1.14,5-2.67,10.57-3.25,15.8-5.07a28.58,28.58,0,0,0,10-6.18c2.25-2.08,2.07-8.63.23-11.45-2.31-3.56-5.9-3.17-9.3-2.62a76.69,76.69,0,0,0-8.63,2.28C556,518,555.22,518.39,554.5,517.51Z"
                transform="translate(-117.68 -96.71)" fill="#c50404" />
        </g>
        <g id="Tango">
            <path
                d="M575,457.71c-.61-2.93-2.19-4.48-5.31-5.22-5.33-1.27-7.13-4.81-5.81-9.94.37-1.43.69-2.88,1-4.33,2.75,1.18,5.24.71,7.77-.84a19.33,19.33,0,0,1,16.54-2.13c3.2,1,4.11,6.16,1.47,8.31-1.83,1.49-3.77,2.85-5.74,4.15s-2,2.36-.76,4.26c3.43,5.3,3.34,5.36,8.84,2,.42-.26.83-.56,1.25-.81,3.72-2.24,3.79-2.21,5.26,2a13.77,13.77,0,0,0,.61,1.36,6.76,6.76,0,0,0-5.49,6.62c-3.76,1.32-7.49,2.7-11.28,3.91-2.5.8-4.54.65-5.41-2.58A48.48,48.48,0,0,0,575,457.71Z"
                transform="translate(-117.68 -96.71)" fill="#05c404" />
        </g>
        <g id="Wakasa">
            <path
                d="M594.62,463.18a6.76,6.76,0,0,1,5.49-6.62c.76,2,1.71,3.85,4.2,4.19,1.32.18,1.52,1.26,2,2.36.79,2,3.09,1.88,4.53,1.67s.13-1.84,0-2.85-.49-2.19.67-2.64a3.17,3.17,0,0,1,3.41.87c2.94,2.73,4.16,2.46,5.69-1,.43-1,0-3,1.92-2.53,1.26.29,3.37-.42,3.36,2.41,0,1.37,2.35.77,3.43,1.55,5.9,1.85,1.73,5.63,1.65,8.63-7.76,3.66-15.54,7.18-24.48,4.9Z"
                transform="translate(-117.68 -96.71)" fill="#c50404" />
        </g>
        <g id="Awaji">
            <path
                d="M538.7,541.7c-3.15-.92-5.72,2.27-9.32.85-3.11-1.23-3.43-3.54-3.83-5.74s.05-4.85,2.8-5.38,2.6-3.57,4.31-4.65c5.27-3.32,10.77-6.27,16.16-9.4,1.6-.93,2.24.4,3.1,1.19,1.18,1.09,0,1.72-.54,2.47a16.58,16.58,0,0,1-7,6c-4,1.87-5.21,6.4-2.92,10.24.58,1,1.48,1.83.38,3C541,541.1,540.22,542.22,538.7,541.7Z"
                transform="translate(-117.68 -96.71)" fill="#0405c6" />
        </g>
        <g id="Yamato">
            <path
                d="M620.17,546.47a11.83,11.83,0,0,1-7.23,2.4c-1.87-.11-2.63.42-2.69,2s-2.31,3.08.5,4.68c2.63,1.49-.3,3.65-.13,5.53-1.86,3.57-2.21,7.6-3.5,11.35s-2.92,4.9-6.89,4.11c-2.58-.51-9.45,2.26-10.63,4.62-.82,1.65-1.64,1.8-3.21,1.26s-3.35-.79-5-1.21c-5.45-1.35-8.12-5.28-7.46-10.89a2.76,2.76,0,0,0,0-1.46c-2.63-4.61.36-6.68,3.83-8.45,6-3.06,8.12-8.22,8.08-14.59.54-3.58,3.24-6.85,1.84-10.68a6.47,6.47,0,0,1,1.75-7.38c2.18-2.19,4.39-4.34,6.59-6.5,4,3.21,8.81,4.54,13.69,5.56a5.83,5.83,0,0,1,4.39,3.06c-.54,2.3-.95,4.63-1.65,6.88-.64,2-.1,3.2,2,3.37C618.37,540.44,620.44,542.37,620.17,546.47Z"
                transform="translate(-117.68 -96.71)" fill="#c50404" />
        </g>
        <g id="Kawachi">
            <path
                d="M596,521.23c-2.2,2.16-4.41,4.31-6.59,6.5a6.47,6.47,0,0,0-1.75,7.38c1.4,3.83-1.3,7.1-1.84,10.68-4.4-1.61-9.16.6-13.58-1.24-.72-.31-1.37-.43-1.47-1.32,10.76-8.88,15-21.88,21.16-33.64C593.85,513.27,594.43,517.42,596,521.23Z"
                transform="translate(-117.68 -96.71)" fill="#05c404" />
        </g>
        <g id="Omi">
            <path
                d="M650.84,466.59a4.86,4.86,0,0,1,0,3.28c-.49,1.42-.59,2.27,1.23,3.1,2.21,1,2.49,3.72,2.58,5.79.11,2.8-.39,6.36-2.46,7.88-4.73,3.47-4,7.61-3,12.13-.82,8.17-6.22,13.11-12,18.22-3.44,3-6.6,2.36-10.17,1.89-3.5-2.2-6.64-1.28-9.61,1.11-6.86-3.41-7.93-5.86-5.65-12.89.3-.94.53-1.91.79-2.86,1.84-.32,2.43-2.05,3.44-3.22,2.19-2.55,3.72-6.09,8.18-4.3a1,1,0,0,0,1-.22c2.9-4.59,7.93-5.09,12.47-6.31,4.35-1.17,5.19-2.39,3.73-6.71-1.1-3.26-2.86-6.37-2.18-10l-.09,0c.56.17.6-.19.6-.58Z"
                transform="translate(-117.68 -96.71)" fill="#c5c507" />
        </g>
        <g id="Iga">
            <path
                d="M617.49,520c3-2.39,6.11-3.31,9.61-1.11,3.55,9.23-.65,16.89-5,24.53-.59,1.06-1.32,2.05-2,3.06.27-4.1-1.8-6-5.77-6.37-2.09-.17-2.63-1.34-2-3.37.7-2.25,1.11-4.58,1.65-6.88Q615.77,524.92,617.49,520Z"
                transform="translate(-117.68 -96.71)" fill="#05c404" />
        </g>
        <g id="Tamba">
            <path
                d="M594.62,463.18l11.84,11c-1.49,8.79-4.73,16.63-11.83,22.54a84.28,84.28,0,0,0-6.75,7c-3.1-.44-6.22-.9-7.63-4.28-1.8-4.3-5.49-5.68-9.62-6.47-1.34-.26-2.65-.64-4-1-6-4.61-7.89-11-7.67-18.2.09-.09.24-.18.25-.28.72-9.76,8.08-12.92,15.72-15.81a48.48,48.48,0,0,1,3,6.8c.87,3.23,2.91,3.38,5.41,2.58C587.13,465.88,590.86,464.5,594.62,463.18Z"
                transform="translate(-117.68 -96.71)" fill="#c5c507" />
        </g>
        <g id="Kyoto">
            <path
                d="M587.88,503.71a84.28,84.28,0,0,1,6.75-7c7.1-5.91,10.34-13.75,11.83-22.54,8.94,2.28,16.72-1.24,24.48-4.9,3.2-.5,5.94-2.29,8.95-3.3a3.18,3.18,0,0,0,2.13-3.15c.24-3.4,1.92-4.07,4.84-2.75a20.6,20.6,0,0,0,2.46.76c.51,1.92,1,3.84,1.52,5.76l-11.08,6.32c-.39,0-.63.15-.6.58l.09,0c-7.38.64-8.58,1.62-10.78,8.57-.25.8-.55,1.86-1.17,2.24-4.5,2.79-8.41,5.8-11,10.89-1.49,3-3.23,5.72-3.71,9.07-.26.95-.49,1.92-.79,2.86-2.28,7-1.21,9.48,5.65,12.89q-1.71,4.93-3.43,9.86a5.83,5.83,0,0,0-4.39-3.06c-4.88-1-9.68-2.35-13.69-5.56-1.55-3.81-2.13-8-4.07-11.64C591.94,506.69,589.19,505.69,587.88,503.71Z"
                transform="translate(-117.68 -96.71)" fill="#0405c6" />
        </g>
    </g>
</svg>